<svg width="100" height="100" viewBox="0 0 100 100" fill="none" xmlns="http://www.w3.org/2000/svg">
<path d="M57.2109 4.40991C61.1605 4.40991 64.3623 7.61169 64.3623 11.5613V31.2273C68.3118 31.2273 71.5135 34.4292 71.5137 38.3787V88.4382C71.5137 92.3878 68.3119 95.5896 64.3623 95.5896H14.3027C10.3531 95.5896 7.15137 92.3878 7.15137 88.4382V68.7722C3.20178 68.7722 0 65.5704 0 61.6208V11.5613C3.67559e-06 7.61169 3.20178 4.40991 7.15137 4.40991H57.2109ZM14.3027 35.9949C12.9863 35.9949 11.9191 37.0623 11.9189 38.3787V88.4382C11.9189 89.7548 12.9862 90.822 14.3027 90.822H64.3623C65.6788 90.822 66.7461 89.7548 66.7461 88.4382V38.3787C66.7459 37.0623 65.6787 35.9949 64.3623 35.9949H14.3027ZM53.04 66.5076C54.0267 66.508 54.8266 67.308 54.8271 68.2947V69.4871C54.8271 70.4742 54.0271 71.2748 53.04 71.2751H25.626C24.6386 71.2751 23.8379 70.4744 23.8379 69.4871V68.2947C23.8385 67.3078 24.639 66.5076 25.626 66.5076H53.04ZM74.6104 8.27222C88.8858 9.81576 99.9997 21.9049 100 36.5906C100 44.1406 97.0607 51.0037 92.2666 56.1013L97.7148 61.9226C98.7778 63.0584 97.8456 64.903 96.3008 64.7205L75.4961 62.2615C74.4927 62.1428 73.8241 61.1667 74.0762 60.1882L78.6602 42.3894C79.033 40.9434 80.9726 40.6773 81.7207 41.9695L84.708 47.1355C87.7255 44.4712 89.6298 40.575 89.6299 36.2332C89.6296 30.3169 86.0962 25.2254 81.0244 22.9548C79.845 17.6008 77.6334 12.6334 74.6104 8.27222ZM7.15137 9.17749C5.83484 9.17749 4.76758 10.2448 4.76758 11.5613V61.6208C4.76758 62.9374 5.83484 64.0046 7.15137 64.0046V38.3787C7.15156 34.4292 10.3533 31.2273 14.3027 31.2273H59.5947V11.5613C59.5947 10.2448 58.5275 9.17749 57.2109 9.17749H7.15137ZM58.5225 55.5417C59.5094 55.542 60.3102 56.3429 60.3105 57.3298V58.5212C60.3105 59.5085 59.5097 60.3091 58.5225 60.3093H20.1436C19.1562 60.3093 18.3555 59.5086 18.3555 58.5212V57.3298C18.3558 56.3427 19.1564 55.5418 20.1436 55.5417H58.5225Z" fill="#0E1726"/>
</svg>
