<svg width="100" height="100" viewBox="0 0 100 100" fill="none" xmlns="http://www.w3.org/2000/svg">
<rect x="1" y="1" width="98" height="98" rx="9" fill="#0E1726" stroke="#E6E6E6" stroke-width="2"/>
<rect x="28.2222" y="22.8333" width="43.5556" height="43.5556" rx="6.22222" stroke="#E05C70" stroke-width="3.11111"/>
<path d="M25.1113 50.9436C22.4329 52.2152 20.3276 53.6605 18.877 55.1848C17.2977 56.8445 16.5557 58.5258 16.5557 60.1672C16.5558 61.8086 17.2976 63.49 18.877 65.1497C20.4642 66.8175 22.8349 68.3907 25.8828 69.7454C31.975 72.453 40.5007 74.1672 50 74.1672L47.2002 72.0667C46.8567 71.8089 46.7872 71.3214 47.0449 70.9778C47.3025 70.6345 47.7893 70.5644 48.1328 70.8215L52.8008 74.3225C52.9962 74.4694 53.1104 74.7 53.1104 74.9446C53.1103 75.1891 52.9963 75.4198 52.8008 75.5667L48.1328 79.0667C47.7892 79.3241 47.3026 79.2539 47.0449 78.9104C46.7874 78.5668 46.8566 78.0792 47.2002 77.8215L49.998 75.7219L49.0967 75.718C30.4847 75.5085 15.4838 68.8405 15.0117 60.5686L15 60.1672C15 55.9035 18.8601 52.0406 25.1113 49.2307V50.9436ZM74.8887 49.2307C81.1399 52.0406 85 55.9035 85 60.1672L84.9883 60.5686C84.5621 68.0358 72.2964 74.1939 56.2227 75.4758V73.9153C63.1979 73.3473 69.3901 71.8462 74.1172 69.7454C77.1651 68.3907 79.5358 66.8175 81.123 65.1497C82.7024 63.49 83.4442 61.8086 83.4443 60.1672C83.4443 58.5258 82.7023 56.8445 81.123 55.1848C79.6724 53.6605 77.5671 52.2152 74.8887 50.9436V49.2307Z" fill="#E05C70"/>
</svg>
